<?xml version="1.0" encoding="utf-8"?>
<!-- Generator: Adobe Illustrator 25.0.1, SVG Export Plug-In . SVG Version: 6.00 Build 0)  -->
<svg version="1.1" id="Layer_1" xmlns="http://www.w3.org/2000/svg" xmlns:xlink="http://www.w3.org/1999/xlink" x="0px" y="0px"
	 viewBox="0 0 48 48" style="enable-background:new 0 0 48 48;" xml:space="preserve">
<style type="text/css">
	.st0{fill:#FFFFFF;}
</style>
<path class="st0" d="M30.8,33.9l3.1-3l-7.7-7.8v-9.5h-4.1v11.2L30.8,33.9z M24,45.2c-2.9,0-5.7-0.6-8.3-1.7C13.2,42.5,10.9,41,9,39
	c-1.9-1.9-3.4-4.2-4.6-6.8S2.8,26.9,2.8,24c0-2.9,0.6-5.7,1.7-8.3C5.5,13.1,7.1,10.9,9,9s4.2-3.4,6.7-4.6c2.6-1.1,5.3-1.7,8.3-1.7
	s5.7,0.6,8.3,1.7C34.9,5.5,37.1,7.1,39,9c1.9,1.9,3.4,4.2,4.6,6.7c1.1,2.6,1.7,5.3,1.7,8.3s-0.6,5.7-1.7,8.3
	c-1.1,2.6-2.7,4.8-4.6,6.7c-1.9,1.9-4.2,3.4-6.7,4.6C29.7,44.7,26.9,45.2,24,45.2z M24,40.5c4.6,0,8.5-1.6,11.7-4.8
	c3.2-3.2,4.9-7.1,4.9-11.7s-1.6-8.5-4.9-11.7C32.4,9.1,28.5,7.4,24,7.4c-4.6,0-8.5,1.6-11.7,4.8C9.1,15.5,7.5,19.4,7.5,24
	c0,4.6,1.6,8.5,4.8,11.7C15.5,38.9,19.4,40.5,24,40.5z"/>
</svg>
