<?xml version="1.0" encoding="utf-8"?>
<!-- Svg Vector Icons : http://www.onlinewebfonts.com/icon -->
<!DOCTYPE svg PUBLIC "-//W3C//DTD SVG 1.1//EN" "http://www.w3.org/Graphics/SVG/1.1/DTD/svg11.dtd">
<svg version="1.1" xmlns="http://www.w3.org/2000/svg" xmlns:xlink="http://www.w3.org/1999/xlink" x="0px" y="0px" viewBox="0 0 1000 1000" enable-background="new 0 0 1000 1000" xml:space="preserve">
<metadata> Svg Vector Icons : http://www.onlinewebfonts.com/icon </metadata>
<g><g transform="translate(0.000000,511.000000) scale(0.100000,-0.100000)"><path d="M840.8,3260.4c-66.7-16.1-142.6-43.7-170.2-57.5c-43.7-23-43.7-25.3-2.3-52.9c48.3-34.5,4145.4-2576.5,4258.2-2643.2l75.9-43.7l142.6,87.4C5352,677,8036.6,2340.2,8754.4,2788.8c335.9,209.3,607.3,388.8,602.7,398c-6.9,9.2-78.2,39.1-161,64.4c-149.5,46-197.9,46-4193.8,43.7C1579.2,3294.9,944.3,3290.3,840.8,3260.4z"/><path d="M100,65c0-1550.5,6.9-2277.5,25.3-2362.6c80.5-379.6,409.5-690.1,805.2-752.2c204.7-34.5,7934.3-34.5,8139.1,0c391.1,62.1,694.7,340.5,795.9,722.3c29.9,117.3,34.5,439.4,34.5,2385.6c0,1237.7-4.6,2249.9-11.5,2249.9s-722.4-441.7-1591.9-980C7424.7,787.4,6394.1,147.9,6000.7-96C5126.5-638.9,5156.4-622.8,5000-622.8s-163.3,4.6-938.6,485.4C2446.5,867.9,120.7,2308,111.5,2308C104.6,2308,100,1298.1,100,65z"/></g></g>
</svg>