<?xml version="1.0" encoding="utf-8"?>
<!-- Svg Vector Icons : http://www.onlinewebfonts.com/icon -->
<!DOCTYPE svg PUBLIC "-//W3C//DTD SVG 1.1//EN" "http://www.w3.org/Graphics/SVG/1.1/DTD/svg11.dtd">
<svg version="1.1" xmlns="http://www.w3.org/2000/svg" xmlns:xlink="http://www.w3.org/1999/xlink" x="0px" y="0px" viewBox="0 0 1000 1000" enable-background="new 0 0 1000 1000" xml:space="preserve">
<metadata> Svg Vector Icons : http://www.onlinewebfonts.com/icon </metadata>
<g><path d="M879.8,223.1c0,0,78.6-6.3,110.2-30.2c0,0-7.6,27.5-102.1,114.5c0,0,31.8,469.6-453.4,584.6c0,0-246.1,53.4-424.4-82.7c0,0,186.7,33.7,291.7-84.2c0,0-135.5,1.4-178.3-138.9c0,0,51.2,11.2,81.6-2.8c0,0-153.5-32.3-150.7-202.1c0,0,41.5,30.9,78.8,25.3c0,0-138.2-119.3-52.5-268c0,0,185.2,222.3,414.8,209.1c-4-15.9-6.2-32.6-6.2-49.8c0-110.5,88.3-200.2,197.3-200.2c55,0,104.8,22.9,140.6,59.8c26.2,0.4,80.2-4.3,134.1-43.5C961.1,114.1,964.2,156.9,879.8,223.1L879.8,223.1z"/></g>
</svg>