<?xml version="1.0" encoding="utf-8"?>
<!-- Svg Vector Icons : http://www.onlinewebfonts.com/icon -->
<!DOCTYPE svg PUBLIC "-//W3C//DTD SVG 1.1//EN" "http://www.w3.org/Graphics/SVG/1.1/DTD/svg11.dtd">
<svg version="1.1" xmlns="http://www.w3.org/2000/svg" xmlns:xlink="http://www.w3.org/1999/xlink" x="0px" y="0px" viewBox="0 0 1000 1000" enable-background="new 0 0 1000 1000" xml:space="preserve">
<metadata> Svg Vector Icons : http://www.onlinewebfonts.com/icon </metadata>
<g><path d="M10,305.1l39.8,52.2c0,0,82.1-64.7,109.5-32.3c27.3,32.3,131.8,423,166.7,495c30.4,63.2,114.4,146.7,206.4,87.1c92-59.7,398-320.9,452.7-629.3c54.7-308.4-368.2-243.8-413,24.9c112-67.2,171.7,27.3,114.4,134.4c-57.2,106.9-109.5,176.7-136.8,176.7c-27.3,0-48.3-71.6-79.6-196.6C437.8,287.7,438,54.8,303.5,81.2C176.7,106.1,10,305.1,10,305.1z"/></g>
</svg>