<?xml version="1.0" encoding="utf-8"?>
<!-- Generator: Adobe Illustrator 25.0.1, SVG Export Plug-In . SVG Version: 6.00 Build 0)  -->
<svg version="1.1" id="Layer_1" xmlns="http://www.w3.org/2000/svg" xmlns:xlink="http://www.w3.org/1999/xlink" x="0px" y="0px"
	 viewBox="0 0 1000 1000" style="enable-background:new 0 0 1000 1000;" xml:space="preserve">
<style type="text/css">
	.st0{fill:#B5B5B5;}
</style>
<g>
	<path class="st0" d="M10,305.1l39.8,52.2c0,0,82.1-64.7,109.5-32.3c27.3,32.3,131.8,423,166.7,495
		c30.4,63.2,114.4,146.7,206.4,87.1c92-59.7,398-320.9,452.7-629.3S616.9,34,572.1,302.7c112-67.2,171.7,27.3,114.4,134.4
		C629.3,544,577,613.8,549.7,613.8s-48.3-71.6-79.6-196.6C437.8,287.7,438,54.8,303.5,81.2C176.7,106.1,10,305.1,10,305.1z"/>
</g>
</svg>
